<?xml version="1.0" encoding="UTF-8"?>
<!DOCTYPE svg PUBLIC "-//W3C//DTD SVG 1.1//EN" "http://www.w3.org/Graphics/SVG/1.1/DTD/svg11.dtd">
<svg version="1.1" xmlns="http://www.w3.org/2000/svg" xmlns:xlink="http://www.w3.org/1999/xlink" x="0" y="0" width="520" height="650" viewBox="0, 0, 520, 650">
  <g id="logo_ok">
    <path d="M153.538,419.211 C163.19,419.379 172.798,420.373 182.264,422.244 C194.9,425.032 209.066,430.377 218.862,436.095 C228.657,441.815 238.858,450.488 249.529,462.132 C260.705,473.482 269.789,487.878 276.744,505.27 C282.683,522.064 282.203,540.091 279.68,557.499 C207.589,557.054 191.237,556.954 174.884,556.944 C175.8,549.855 173.865,542.898 171.996,536.131 C171.568,534.791 170.907,533.537 170.363,532.241 C164.788,520.479 149.805,515.269 125.357,516.684 C116.437,516.89 99.636,518.151 74.949,520.421 C66.843,521.083 52.054,522.83 52.054,522.83 L34.734,421.109 C34.735,421.11 35.697,421.189 36.036,421.229 C38.584,421.17 43.38,422.241 50.374,422.326 C82.519,424.09 107.225,420.23 141.28,419.36 C146.937,419.148 144.107,419.216 149.769,419.157 L153.538,419.211 z" fill="#4F4F4F"/>
    <path d="M66.381,235.709 L72.852,235.749 C107.479,236.63 110.843,238.009 159.802,250.141 L132.465,338.65 C94.345,331.605 55.486,326.836 30.267,341.575 C27.126,343.411 22.131,347.165 22.131,347.165 L4.766,245.173 C20.723,240.637 37.157,237.523 53.711,236.291 C57.927,235.978 62.158,235.903 66.381,235.709 z" fill="#4F4F4F"/>
    <path d="M444.905,165.515 C454.842,212.078 475.742,156.873 478.48,202.367 C458.685,244.553 424.2,297.939 377.773,321.168 C335.314,342.413 272.43,331.551 235.598,329.739 C214.182,320.343 203.832,322.065 210.99,265.553 C239.307,270.827 290.589,282.333 324.332,265.34 C356.966,248.907 396.891,202.841 389.762,177.398" fill="#4F4F4F" id="path4120-3-2-7-3-4-6-8-2-7-2-2-4-6-7-8-0-9-8-2-7-9-32-8-0-33-3-0"/>
    <path d="M193.727,259.897 C278.313,282.862 319.358,295.112 385.609,343.751 C416.749,367.885 467.693,399.791 467.693,399.791 C470.41,412.444 370.136,411.208 392.699,451.428 C392.699,451.428 349.752,418.142 326.24,404.708 C299.798,389.602 271.772,377.054 243.025,367.006 C217.697,358.152 164.976,347.317 164.976,347.317 z" fill="#4F4F4F" id="rect4365-7-1-2-0-5-3-7-9-9-2-9-3-4-2-0-3-2-7-7-9"/>
    <path d="M465.323,307.768 L491.503,499.479 C491.641,500.415 490.174,501.493 488.505,501.271 L308.533,476.611 C306.86,476.381 304.623,475.455 305.442,474.984 L401.219,419.73 C460.716,385.407 410.437,412.057 410.437,412.057 L462.236,306.148 C463.822,305.473 464.506,306.672 465.327,307.774 z" fill="#4F4F4F" id="rect4978-4-6-4-0-4-2-9-3-8-9-6-1-6-2-3-1-7-5-1-2-2-4-9-4-4-8-1"/>
    <path d="M310.558,174.488 L485.861,92.587 C486.714,92.18 488.218,93.253 488.456,94.925 L515.14,282.014 C515.381,283.685 515.155,286.135 514.505,285.449 L437.322,203.846 C390.123,153.943 426.434,195.954 426.434,195.954 L309.923,177.922 C308.807,176.608 309.75,175.598 310.558,174.488 z" fill="#4F4F4F" id="path3288-3-6-6-9-2-0-2-6-4-1-1-3-37-0-6"/>
  </g>
  <g id="logo_nok" display="none">
    <path d="M153.538,419.211 C163.19,419.379 172.798,420.373 182.264,422.244 C194.9,425.032 209.066,430.377 218.862,436.095 C228.657,441.815 238.858,450.488 249.529,462.132 C260.705,473.482 269.789,487.878 276.744,505.27 C282.683,522.064 282.203,540.091 279.68,557.499 C207.589,557.054 191.237,556.954 174.884,556.944 C175.8,549.855 173.865,542.898 171.996,536.131 C171.568,534.791 170.907,533.537 170.363,532.241 C164.788,520.479 149.805,515.269 125.357,516.684 C116.437,516.89 99.636,518.151 74.949,520.421 C66.843,521.083 52.054,522.83 52.054,522.83 L34.734,421.109 C34.735,421.11 35.697,421.189 36.036,421.229 C38.584,421.17 43.38,422.241 50.374,422.326 C82.519,424.09 107.225,420.23 141.28,419.36 C146.937,419.148 144.107,419.216 149.769,419.157 L153.538,419.211 z" fill="#C3C3C3"/>
    <path d="M66.381,235.709 L72.852,235.749 C107.479,236.63 110.843,238.009 159.802,250.141 L132.465,338.65 C94.345,331.605 55.486,326.836 30.267,341.575 C27.126,343.411 22.131,347.165 22.131,347.165 L4.766,245.173 C20.723,240.637 37.157,237.523 53.711,236.291 C57.927,235.978 62.158,235.903 66.381,235.709 z" fill="#C3C3C3"/>
    <path d="M444.905,165.515 C454.842,212.078 475.742,156.873 478.48,202.367 C458.685,244.553 424.2,297.939 377.773,321.168 C335.314,342.413 272.43,331.551 235.598,329.739 C214.182,320.343 203.832,322.065 210.99,265.553 C239.307,270.827 290.589,282.333 324.332,265.34 C356.966,248.907 396.891,202.841 389.762,177.398" fill="#C3C3C3" id="path4120-3-2-7-3-4-6-8-2-7-2-2-4-6-7-8-0-9-8-2-7-9-32-8-0-33-3-0"/>
    <path d="M193.727,259.897 C278.313,282.862 319.358,295.112 385.609,343.751 C416.749,367.885 467.693,399.791 467.693,399.791 C470.41,412.444 370.136,411.208 392.699,451.428 C392.699,451.428 349.752,418.142 326.24,404.708 C299.798,389.602 271.772,377.054 243.025,367.006 C217.697,358.152 164.976,347.317 164.976,347.317 z" fill="#C3C3C3" id="rect4365-7-1-2-0-5-3-7-9-9-2-9-3-4-2-0-3-2-7-7-9"/>
    <path d="M465.323,307.768 L491.503,499.479 C491.641,500.415 490.174,501.493 488.505,501.271 L308.533,476.611 C306.86,476.381 304.623,475.455 305.442,474.984 L401.219,419.73 C460.716,385.407 410.437,412.057 410.437,412.057 L462.236,306.148 C463.822,305.473 464.506,306.672 465.327,307.774 z" fill="#C3C3C3" id="rect4978-4-6-4-0-4-2-9-3-8-9-6-1-6-2-3-1-7-5-1-2-2-4-9-4-4-8-1"/>
    <path d="M310.558,174.488 L485.861,92.587 C486.714,92.18 488.218,93.253 488.456,94.925 L515.14,282.014 C515.381,283.685 515.155,286.135 514.505,285.449 L437.322,203.846 C390.123,153.943 426.434,195.954 426.434,195.954 L309.923,177.922 C308.807,176.608 309.75,175.598 310.558,174.488 z" fill="#C3C3C3" id="path3288-3-6-6-9-2-0-2-6-4-1-1-3-37-0-6"/>
  </g>
  <g id="syncing6">
    <g id="border">
      <path d="M484,492 L501.312,492 L501.312,509 L484,509 L484,492 z" fill="#FFFFFF"/>
      <path d="M344.839,578 C250.733,578 174.444,501.712 174.444,407.605 C174.444,313.499 250.733,237.21 344.839,237.21 C438.946,237.21 515.234,313.499 515.234,407.605 C515.234,501.712 438.946,578 344.839,578 z" fill="#FFFFFF"/>
    </g>
    <g id="inner">
      <path d="M344.839,557.078 C262.287,557.078 195.366,490.157 195.366,407.605 C195.366,325.053 262.287,258.132 344.839,258.132 C427.391,258.132 494.312,325.053 494.312,407.605 C494.312,490.157 427.391,557.078 344.839,557.078 z" fill="#4F4F4F"/>
      <path d="M326.859,269.175 L251.489,339.317 L343.998,385.305 L338.407,347.421 C372.165,343.638 403.138,367.331 408.124,401.12 C409.571,410.92 408.707,420.534 405.888,429.368 L445.603,445.249 C451.242,429.506 453.246,412.149 450.633,394.442 C442.243,337.596 389.039,298.055 332.125,304.854 L326.859,269.175 z" fill="#FFFFFF" id="path3532"/>
      <path d="M358.95,545.754 L433.925,475.19 L341.16,429.722 L346.964,467.574 C313.227,471.547 282.122,448.027 276.946,414.267 C275.444,404.475 276.254,394.857 279.023,386.007 L239.22,370.349 C233.669,386.124 231.763,403.491 234.475,421.184 C243.184,477.982 296.609,517.223 353.484,510.105 L358.95,545.754 z" fill="#FFFFFF" id="path3544"/>
    </g>
  </g>
</svg>
